<svg data-v-29081953="" xmlns="http://www.w3.org/2000/svg" viewBox="0 0 300 300">
<clipPath id="clipCircle">
    <circle r="50" cx="50" cy="50"/>
  </clipPath><!----><defs data-v-29081953=""><!----></defs><rect data-v-29081953="" fill="#50A6D8" x="0" y="0" width="300px" height="300px" class="logo-background-circle"></rect><defs data-v-29081953=""><!----></defs><g data-v-29081953="" id="d2d3b1e3-d980-450c-8fc4-d3ea156ba101" fill="#ffffff" transform="matrix(5.213554956497767,0,0,5.213554956497767,16.03769828278203,177.7948657176151)"><path d="M10.67 3.88L10.67 3.88L9.86 4.48L9.86 4.48Q9.21 3.62 8.28 3.18L8.28 3.18L8.28 3.18Q7.36 2.73 6.25 2.73L6.25 2.73L6.25 2.73Q5.03 2.73 4.00 3.32L4.00 3.32L4.00 3.32Q2.97 3.90 2.40 4.88L2.40 4.88L2.40 4.88Q1.83 5.86 1.83 7.09L1.83 7.09L1.83 7.09Q1.83 8.94 3.10 10.07L3.10 10.07L3.10 10.07Q4.37 11.20 6.30 11.20L6.30 11.20L6.30 11.20Q8.44 11.20 9.86 9.54L9.86 9.54L10.67 10.14L10.67 10.14Q9.91 11.11 8.78 11.63L8.78 11.63L8.78 11.63Q7.64 12.16 6.25 12.16L6.25 12.16L6.25 12.16Q3.58 12.16 2.04 10.39L2.04 10.39L2.04 10.39Q0.76 8.89 0.76 7L0.76 7L0.76 7Q0.76 4.78 2.32 3.25L2.32 3.25L2.32 3.25Q3.88 1.73 6.23 1.73L6.23 1.73L6.23 1.73Q7.65 1.73 8.79 2.29L8.79 2.29L8.79 2.29Q9.94 2.86 10.67 3.88ZM12.39 12.09L12.39 1.69L13.36 1.69L13.36 12.09L12.39 12.09ZM18.89 4.22L18.89 4.22L18.89 4.22Q20.62 4.22 21.77 5.47L21.77 5.47L21.77 5.47Q22.80 6.62 22.80 8.18L22.80 8.18L22.80 8.18Q22.80 9.75 21.70 10.92L21.70 10.92L21.70 10.92Q20.61 12.09 18.89 12.09L18.89 12.09L18.89 12.09Q17.17 12.09 16.08 10.92L16.08 10.92L16.08 10.92Q14.99 9.75 14.99 8.18L14.99 8.18L14.99 8.18Q14.99 6.62 16.02 5.48L16.02 5.48L16.02 5.48Q17.17 4.22 18.89 4.22ZM18.89 5.16L18.89 5.16L18.89 5.16Q17.70 5.16 16.84 6.05L16.84 6.05L16.84 6.05Q15.98 6.94 15.98 8.20L15.98 8.20L15.98 8.20Q15.98 9.01 16.37 9.72L16.37 9.72L16.37 9.72Q16.76 10.42 17.43 10.80L17.43 10.80L17.43 10.80Q18.10 11.18 18.89 11.18L18.89 11.18L18.89 11.18Q19.70 11.18 20.37 10.80L20.37 10.80L20.37 10.80Q21.03 10.42 21.42 9.72L21.42 9.72L21.42 9.72Q21.81 9.01 21.81 8.20L21.81 8.20L21.81 8.20Q21.81 6.94 20.95 6.05L20.95 6.05L20.95 6.05Q20.09 5.16 18.89 5.16ZM27.28 11.03L27.28 11.03L27.28 11.03Q26.56 11.41 25.88 11.09L25.88 11.09L25.88 11.09Q25.05 10.45 25.09 9.28L25.09 9.28L25.09 6.10L26.87 6.10L26.87 5.28L25.08 5.28L25.08 1.65L24.11 1.65L24.11 9.44L24.11 9.44Q24.10 10.26 24.49 10.94L24.49 10.94L24.49 10.94Q25.13 12.03 26.24 12.09L26.24 12.09L26.24 12.09Q26.82 12.11 27.58 11.83L27.58 11.83L27.58 11.83Q27.46 11.54 27.28 11.03ZM29.11 12.10L29.11 1.70L30.08 1.70L30.08 5.95L30.08 5.95Q30.66 5.17 31.36 4.79L31.36 4.79L31.36 4.79Q32.06 4.41 32.88 4.41L32.88 4.41L32.88 4.41Q33.73 4.41 34.38 4.84L34.38 4.84L34.38 4.84Q35.03 5.26 35.33 5.98L35.33 5.98L35.33 5.98Q35.64 6.70 35.64 8.24L35.64 8.24L35.64 12.10L34.69 12.10L34.69 8.52L34.69 8.52Q34.69 7.23 34.58 6.79L34.58 6.79L34.58 6.79Q34.40 6.04 33.93 5.67L33.93 5.67L33.93 5.67Q33.46 5.30 32.69 5.30L32.69 5.30L32.69 5.30Q31.81 5.30 31.12 5.88L31.12 5.88L31.12 5.88Q30.43 6.45 30.21 7.31L30.21 7.31L30.21 7.31Q30.08 7.85 30.08 9.35L30.08 9.35L30.08 12.10L29.11 12.10ZM44.01 9.42L44.01 9.42L44.82 9.85L44.82 9.85Q44.43 10.64 43.90 11.12L43.90 11.12L43.90 11.12Q43.37 11.59 42.72 11.84L42.72 11.84L42.72 11.84Q42.06 12.09 41.23 12.09L41.23 12.09L41.23 12.09Q39.40 12.09 38.37 10.89L38.37 10.89L38.37 10.89Q37.34 9.69 37.34 8.18L37.34 8.18L37.34 8.18Q37.34 6.75 38.21 5.64L38.21 5.64L38.21 5.64Q39.32 4.22 41.19 4.22L41.19 4.22L41.19 4.22Q43.09 4.22 44.24 5.67L44.24 5.67L44.24 5.67Q45.06 6.70 45.06 8.23L45.06 8.23L38.33 8.23L38.33 8.23Q38.36 9.54 39.16 10.38L39.16 10.38L39.16 10.38Q39.97 11.22 41.15 11.22L41.15 11.22L41.15 11.22Q41.73 11.22 42.27 11.02L42.27 11.02L42.27 11.02Q42.81 10.81 43.19 10.49L43.19 10.49L43.19 10.49Q43.57 10.16 44.01 9.42ZM38.43 7.40L44.01 7.40L44.01 7.40Q43.82 6.63 43.45 6.17L43.45 6.17L43.45 6.17Q43.08 5.71 42.47 5.42L42.47 5.42L42.47 5.42Q41.86 5.14 41.19 5.14L41.19 5.14L41.19 5.14Q40.09 5.14 39.30 5.85L39.30 5.85L39.30 5.85Q38.73 6.37 38.43 7.40L38.43 7.40ZM50.63 5.23L50.63 5.23L50.01 5.87L50.01 5.87Q49.23 5.12 48.50 5.12L48.50 5.12L48.50 5.12Q48.03 5.12 47.69 5.43L47.69 5.43L47.69 5.43Q47.36 5.74 47.36 6.16L47.36 6.16L47.36 6.16Q47.36 6.51 47.64 6.84L47.64 6.84L47.64 6.84Q47.91 7.19 48.79 7.64L48.79 7.64L48.79 7.64Q49.88 8.20 50.26 8.72L50.26 8.72L50.26 8.72Q50.63 9.24 50.63 9.90L50.63 9.90L50.63 9.90Q50.63 10.81 49.99 11.45L49.99 11.45L49.99 11.45Q49.34 12.09 48.37 12.09L48.37 12.09L48.37 12.09Q47.72 12.09 47.13 11.82L47.13 11.82L47.13 11.82Q46.54 11.54 46.16 11.04L46.16 11.04L46.76 10.35L46.76 10.35Q47.50 11.18 48.33 11.18L48.33 11.18L48.33 11.18Q48.90 11.18 49.31 10.81L49.31 10.81L49.31 10.81Q49.72 10.44 49.72 9.94L49.72 9.94L49.72 9.94Q49.72 9.52 49.45 9.20L49.45 9.20L49.45 9.20Q49.18 8.88 48.24 8.39L48.24 8.39L48.24 8.39Q47.22 7.88 46.86 7.36L46.86 7.36L46.86 7.36Q46.49 6.86 46.49 6.20L46.49 6.20L46.49 6.20Q46.49 5.35 47.08 4.78L47.08 4.78L47.08 4.78Q47.66 4.22 48.54 4.22L48.54 4.22L48.54 4.22Q49.57 4.22 50.63 5.23Z"></path></g><defs data-v-29081953=""><!----></defs><g data-v-29081953="" id="e8053f41-7a8e-42ea-8f72-ec3f772d3773" stroke="none" fill="#ffffff" transform="matrix(1.240591830334946,0,0,1.240591830334946,87.96966784977856,52.61899246493168)"><path d="M90.83 52.403c-.038-.056-3.838-5.639-8.306-11.146-8.434-10.397-11.898-11.599-13.77-11.599h-6.1c-.05 0-.098.01-.146.015l-10.197-6.325v-3.296c3.369-.794 5.887-3.818 5.887-7.426 0-4.211-3.426-7.637-7.637-7.637s-7.637 3.426-7.637 7.637a1.75 1.75 0 0 0 3.5 0 4.142 4.142 0 0 1 4.137-4.137c2.281 0 4.137 1.856 4.137 4.137s-1.855 4.137-4.137 4.137a1.75 1.75 0 0 0-1.75 1.75v4.838L38.64 29.659h-7.22c-5.827 0-18.493 17.395-22.236 22.726a1.5 1.5 0 0 0 .28 2.025l14.08 11.478a1.497 1.497 0 0 0 2.111-.214l1.434-1.759v27.91a1.5 1.5 0 0 0 1.5 1.5h43.167a1.5 1.5 0 0 0 1.5-1.5V64.332l1.094 1.341a1.498 1.498 0 0 0 2.11.214l14.079-11.479a1.5 1.5 0 0 0 .291-2.005zM50.562 26.382l10.498 6.511c-.54 3.474-3.567 6.145-7.223 6.145h-5.834c-3.787 0-6.906-2.891-7.251-6.571l9.81-6.085z"></path></g><!----></svg>