<?xml version="1.0" standalone="no"?>
<!DOCTYPE svg PUBLIC "-//W3C//DTD SVG 20010904//EN"
 "http://www.w3.org/TR/2001/REC-SVG-20010904/DTD/svg10.dtd">
<svg version="1.0" xmlns="http://www.w3.org/2000/svg"
 width="700.000000pt" height="700.000000pt" viewBox="0 0 700.000000 700.000000"
 preserveAspectRatio="xMidYMid meet">
<metadata>
Created by potrace 1.11, written by Peter Selinger 2001-2013
</metadata>
<g transform="translate(0.000000,700.000000) scale(0.100000,-0.100000)"
fill="#000000" stroke="none">
<path d="M0 3500 l0 -3500 3500 0 3500 0 0 3500 0 3500 -3500 0 -3500 0 0
-3500z m3617 2102 c76 -40 117 -108 118 -197 0 -91 -56 -173 -140 -205 -22 -8
-25 -15 -25 -57 l0 -48 149 -93 149 -92 108 0 c102 0 112 -2 160 -29 97 -56
298 -279 482 -536 40 -55 72 -107 72 -116 0 -10 -88 -89 -215 -193 -222 -182
-251 -198 -277 -156 -7 11 -16 20 -20 20 -5 0 -8 -181 -8 -403 0 -300 -3 -406
-12 -415 -9 -9 -168 -12 -653 -12 -485 0 -644 3 -653 12 -9 9 -12 118 -12 427
l-1 416 -27 -33 c-16 -19 -36 -32 -50 -32 -31 0 -452 345 -452 370 0 45 349
475 471 580 107 92 127 100 266 100 l118 0 150 93 150 94 3 84 c3 92 13 109
63 109 59 0 111 74 101 142 -6 37 -52 84 -92 92 -61 12 -140 -45 -140 -101 0
-40 -18 -63 -49 -63 -41 0 -54 21 -49 80 14 147 179 231 315 162z m-1617
-3587 l0 -635 -60 0 -60 0 0 635 0 635 60 0 60 0 0 -635z m1430 415 l0 -220
105 0 105 0 0 -50 0 -50 -105 0 -105 0 0 -226 c0 -260 5 -288 66 -352 l42 -44
64 4 c34 2 69 6 77 8 10 4 20 -11 32 -42 l18 -47 -42 -13 c-23 -7 -73 -13
-112 -13 -108 0 -172 44 -236 165 l-24 45 -3 528 -3 527 61 0 60 0 0 -220z
m-2142 194 c119 -24 228 -81 312 -164 38 -38 70 -73 70 -77 -1 -4 -21 -23 -46
-41 l-45 -33 -65 60 c-100 94 -202 138 -344 147 -160 11 -307 -44 -421 -156
-103 -103 -149 -216 -149 -370 0 -203 90 -349 269 -438 97 -49 193 -67 311
-59 138 9 241 53 343 147 l54 50 47 -36 46 -35 -23 -30 c-27 -38 -125 -113
-188 -145 -162 -82 -397 -94 -582 -29 -188 65 -346 241 -392 437 -19 81 -19
225 0 306 54 228 249 414 490 467 83 18 221 18 313 -1z m2742 -234 c0 -137 2
-250 4 -250 2 0 29 24 59 54 82 79 151 110 259 114 114 5 171 -14 242 -79 100
-91 116 -170 116 -575 l0 -274 -60 0 -60 0 0 303 c0 248 -3 313 -16 358 -33
112 -99 161 -218 162 -92 1 -159 -28 -221 -94 -89 -95 -104 -171 -105 -531 l0
-198 -55 0 -55 0 0 630 0 630 55 0 55 0 0 -250z m-1264 -61 c243 -45 417 -297
376 -545 -23 -139 -123 -284 -238 -346 -96 -52 -226 -70 -336 -47 -139 29
-260 128 -325 264 -32 68 -37 88 -41 175 -6 121 17 206 79 300 107 160 290
235 485 199z m2745 -7 c127 -34 233 -120 293 -239 25 -50 38 -98 50 -190 l6
-43 -411 0 -412 0 6 -55 c12 -122 103 -243 212 -284 66 -25 169 -28 239 -7 89
27 165 90 222 182 11 18 14 18 58 -5 25 -13 46 -28 46 -34 0 -20 -62 -106
-106 -147 -171 -157 -482 -158 -643 -1 -101 98 -151 214 -151 351 0 142 42
251 133 348 64 66 122 102 207 124 83 22 167 21 251 0z m892 -15 c28 -13 69
-40 89 -58 l37 -34 -33 -38 -34 -38 -49 34 c-95 69 -179 73 -240 12 -27 -27
-33 -41 -33 -77 0 -65 32 -105 135 -163 147 -85 199 -127 229 -186 86 -173
-46 -379 -244 -379 -86 0 -195 45 -248 103 l-24 25 37 41 37 41 34 -30 c48
-42 88 -60 142 -66 92 -10 182 64 182 150 0 58 -35 104 -109 146 -147 83 -216
134 -245 183 -54 89 -45 204 21 278 82 90 198 111 316 56z"/>
<path d="M3375 4920 c-123 -77 -140 -90 -137 -111 7 -48 47 -103 96 -133 45
-29 57 -31 159 -35 139 -4 202 9 255 54 48 41 80 112 60 130 -10 9 -219 140
-283 177 -6 4 -73 -33 -150 -82z"/>
<path d="M2560 2204 c-66 -21 -136 -77 -180 -144 -122 -190 -53 -446 145 -536
188 -87 408 8 481 206 25 70 23 191 -6 265 -32 82 -123 173 -203 203 -68 26
-168 28 -237 6z"/>
<path d="M5318 2220 c-60 -11 -141 -55 -179 -97 -29 -34 -70 -107 -83 -150
l-7 -23 340 0 340 0 -16 46 c-54 160 -222 255 -395 224z"/>
</g>
</svg>
